#!OML:ASF Y:\EmotionMaleHayes\Project 1\Capture day 1\Session 1\Male1.ASF
:FULLY-SPECIFIED
:DEGREES
69
root 6.36913 17.296 0.606202 38.1919 84.6172 40.6105
lowerback 3.08848 0.298197 -4.76489
upperback 3.77854 0.510537 -3.29932
thorax 2.1562 0.241164 -0.730975
lowerneck -14.9136 -4.72707 -8.64024
upperneck 32.5197 2.72805 -15.3762
head 14.0801 -1.42703 -4.20423
rclavicle 1.39149e-015 -5.40694e-014
rhumerus -52.0726 48.3134 -88.5217
rradius 74.5866
rwrist -7.72482
rhand 3.3301 -33.5695
rfingers 7.12502
rthumb 28.7759 -61.3715
lclavicle 1.39149e-015 -5.40694e-014
lhumerus -33.2999 -7.18673 75.7273
lradius 35.1806
lwrist -6.17301
lhand -15.6365 -23.7829
lfingers 7.12502
lthumb 10.5508 5.93228
rfemur 9.53389 -4.26549 1.48692
rtibia 1.03589
rfoot -8.78109 -4.0691
rtoes -4.18762
lfemur 16.6007 -1.20432 -13.8147
ltibia -5.2633
lfoot -11.485 15.3398
ltoes -2.48189
70
root 6.37146 17.2971 0.598492 40.1104 84.3744 42.5335
lowerback 2.92072 0.206847 -4.88618
upperback 3.91845 0.423952 -3.56113
thorax 2.40051 0.198582 -0.932136
lowerneck -14.8622 -4.92128 -9.05813
upperneck 32.344 2.58643 -15.5161
head 14.002 -1.54717 -4.20237
rclavicle 4.47266e-015 3.18055e-015
rhumerus -52.0557 49.7417 -87.926
rradius 75.5155
rwrist -7.60326
rhand 3.91113 -33.7273
rfingers 7.12502
rthumb 29.3309 -61.4337
lclavicle 4.47266e-015 3.18055e-015
lhumerus -33.5602 -7.56301 75.2996
lradius 35.9967
lwrist -6.2336
lhand -15.332 -23.4122
lfingers 7.12502
lthumb 10.8445 6.28786
rfemur 9.47851 -4.36166 1.05205
rtibia 1.1567
rfoot -8.78556 -3.90242
rtoes -3.953
lfemur 16.5072 -0.866152 -14.1123
ltibia -4.99029
lfoot -11.5384 15.0322
ltoes -2.77632
71
root 6.37501 17.2974 0.592442 41.1362 84.1416 43.6155
lowerback 2.80805 0.101089 -5.01519
upperback 4.03723 0.311849 -3.77655
thorax 2.59191 0.142824 -1.08224
lowerneck -14.3846 -5.09411 -9.58941
upperneck 31.7377 2.29182 -15.5497
head 13.6247 -1.69475 -4.11114
rclavicle 1.38155e-014 4.6118e-014
rhumerus -52.0704 51.2556 -87.3624
rradius 76.3739
rwrist -7.51828
rhand 4.44649 -33.8961
rfingers 7.12502
rthumb 29.8419 -61.5119
lclavicle 1.38155e-014 4.6118e-014
lhumerus -33.8284 -7.74057 74.8528
lradius 36.6859
lwrist -6.34523
lhand -15.2283 -23.4433
lfingers 7.12502
lthumb 10.9445 6.2514
rfemur 9.48578 -4.23862 0.763723
rtibia 1.17754
rfoot -8.71358 -3.90915
rtoes -3.57059
lfemur 16.5694 -0.642921 -14.3748
ltibia -4.92445
lfoot -11.5893 14.9201
ltoes -2.87272
72
root 6.37721 17.2956 0.590391 40.1506 84.0649 42.752
lowerback 2.78475 0.0355572 -4.96908
upperback 4.16577 0.244453 -3.90057
thorax 2.74104 0.112189 -1.23653
lowerneck -14.0016 -5.2677 -10.017
upperneck 31.2562 1.99779 -15.5704
head 13.3275 -1.83663 -4.04519
rclavicle 4.07509e-015 7.15625e-015
rhumerus -52.0447 52.718 -86.7934
rradius 76.9949
rwrist -7.27308
rhand 4.63713 -33.8154
rfingers 7.12502
rthumb 30.0238 -61.3984
lclavicle 4.07509e-015 7.15625e-015
lhumerus -34.0734 -8.17836 74.5149
lradius 37.2875
lwrist -6.2186
lhand -15.4314 -23.6501
lfingers 7.12502
lthumb 10.7486 6.05488
rfemur 9.59167 -3.963 0.834721
rtibia 1.1058
rfoot -8.69017 -3.997
rtoes -2.93382
lfemur 16.7482 -0.468366 -14.2936
ltibia -4.96227
lfoot -11.5848 14.8641
ltoes -3.00197
73
root 6.37729 17.294 0.586499 38.3254 84.0823 41.0364
lowerback 2.78077 0.0295352 -4.6973
upperback 4.32476 0.258651 -4.02407
thorax 2.90913 0.128873 -1.51671
lowerneck -14.2221 -5.48551 -10.2466
upperneck 31.3995 1.88991 -15.7375
head 13.4514 -1.9488 -4.11471
rclavicle 1.45113e-014 1.59028e-014
rhumerus -51.9147 53.9125 -86.0854
rradius 77.5172
rwrist -6.85323
rhand 4.59911 -33.547
rfingers 7.12502
rthumb 29.9875 -61.1365
lclavicle 1.45113e-014 1.59028e-014
lhumerus -34.2002 -9.00813 74.2484
lradius 37.9464
lwrist -6.04583
lhand -15.3501 -23.3993
lfingers 7.12502
lthumb 10.827 6.30163
rfemur 9.65822 -3.84117 1.02721
rtibia 1.1498
rfoot -8.74898 -3.98111
rtoes -2.95783
lfemur 16.8682 -0.270937 -14.041
ltibia -4.89585
lfoot -11.5382 14.7314
ltoes -3.37514
74
root 6.3769 17.2947 0.580173 37.4962 84.0533 40.2755
lowerback 2.79276 -0.00734949 -4.474
upperback 4.39994 0.226031 -4.20994
thorax 2.98201 0.12436 -1.83418
lowerneck -14.8324 -5.62545 -10.1502
upperneck 31.9852 2.08775 -16.1895
head 13.8803 -1.96149 -4.36243
rclavicle 6.75868e-015 2.54444e-014
rhumerus -52.0033 54.9851 -85.5102
rradius 78.1668
rwrist -6.6316
rhand 4.96612 -33.5402
rfingers 7.12502
rthumb 30.3377 -61.0658
lclavicle 6.75868e-015 2.54444e-014
lhumerus -34.4826 -9.67026 73.9147
lradius 38.7278
lwrist -5.94605
lhand -14.9341 -22.9341
lfingers 7.12502
lthumb 11.2283 6.74542
rfemur 9.68132 -3.85072 1.05667
rtibia 1.21625
rfoot -8.76124 -3.79546
rtoes -2.90043
lfemur 16.914 -0.0824118 -13.95
ltibia -4.78826
lfoot -11.5226 14.5895
ltoes -3.79882
75
root 6.37763 17.2962 0.577186 37.4697 83.958 40.3019
lowerback 2.84847 -0.072698 -4.42606
upperback 4.38761 0.145216 -4.4173
thorax 2.93933 0.0925492 -2.07569
lowerneck -14.1659 -5.73499 -10.7656
upperneck 31.5256 1.76441 -15.858
head 13.5172 -2.08511 -4.11129
rclavicle 1.03368e-014 1.59028e-015
rhumerus -52.2862 55.999 -85.0748
rradius 78.8921
rwrist -6.59584
rhand 5.29804 -33.682
rfingers 7.12502
rthumb 30.6542 -61.1488
lclavicle 1.03368e-014 1.59028e-015
lhumerus -34.9776 -10.1236 73.5472
lradius 39.5904
lwrist -5.86915
lhand -14.6244 -22.6531
lfingers 7.12502
lthumb 11.527 7.00993
rfemur 9.71896 -3.72575 0.999063
rtibia 1.17503
rfoot -8.8074 -3.75327
rtoes -2.64181
lfemur 16.9524 0.124411 -13.9601
ltibia -4.71098
lfoot -11.5359 14.4379
ltoes -3.56363
76
root 6.37955 17.296 0.576537 37.3249 83.8595 40.2522
lowerback 2.95242 -0.104771 -4.39734
upperback 4.42277 0.110893 -4.63285
thorax 2.91901 0.0842186 -2.31562
lowerneck -14.5242 -5.7541 -10.4075
upperneck 31.8388 2.03981 -16.5344
head 13.77 -2.0316 -4.45014
rclavicle 2.78299e-015 2.06736e-014
rhumerus -52.3029 56.7342 -84.4085
rradius 79.4853
rwrist -6.30462
rhand 5.42867 -33.5883
rfingers 7.12502
rthumb 30.7788 -61.0317
lclavicle 2.78299e-015 2.06736e-014
lhumerus -35.458 -10.8744 73.1933
lradius 40.5955
lwrist -5.57036
lhand -14.3275 -22.5829
lfingers 7.12502
lthumb 11.8133 7.06387
rfemur 9.8086 -3.4629 0.992764
rtibia 1.13998
rfoot -8.90126 -3.90137
rtoes -2.70412
lfemur 17.0498 0.337542 -13.9445
ltibia -4.66269
lfoot -11.4826 14.2817
ltoes -2.95945
77
root 6.38053 17.2944 0.574021 37.7799 83.6886 40.8592
lowerback 3.1211 -0.136185 -4.45817
upperback 4.51989 0.0802481 -4.86599
thorax 2.92753 0.076638 -2.52465
lowerneck -14.1679 -5.90089 -10.9461
upperneck 31.3788 1.69776 -16.242
head 13.475 -2.17336 -4.24235
rclavicle 1.07344e-014 4.13472e-014
rhumerus -51.9847 57.4412 -83.4736
rradius 79.9337
rwrist -5.88724
rhand 5.53552 -33.3637
rfingers 7.12502
rthumb 30.8806 -60.7879
lclavicle 1.07344e-014 4.13472e-014
lhumerus -35.8877 -11.6949 72.8451
lradius 41.6362
lwrist -5.21303
lhand -13.9591 -22.6298
lfingers 7.12502
lthumb 12.1686 6.99631
rfemur 9.95159 -3.34667 0.804272
rtibia 1.13056
rfoot -8.86229 -3.86986
rtoes -3.03179
lfemur 17.2072 0.4738 -14.1068
ltibia -4.60446
lfoot -11.596 14.1739
ltoes -2.0334
